<svg width="200" height="163" viewBox="0 0 200 163" fill="none" xmlns="http://www.w3.org/2000/svg">
<path d="M97.0605 144.82L126.088 161.609C127.645 162.509 129.543 162.509 131.1 161.609L161.782 143.847C162.682 143.312 162.682 142.022 161.782 141.487L146.21 132.557L99.7856 143.239L97.0849 144.844L97.0605 144.82Z" fill="#20A76A"/>
<path d="M149.3 113.895L178.327 130.684C179.884 131.584 181.782 131.584 183.339 130.684L199.325 121.438C200.225 120.903 200.225 119.613 199.325 119.078L163.412 98.5664L149.324 113.919L149.3 113.895Z" fill="#20A76A"/>
<path d="M2.74038 95.9562C-0.933647 98.1461 -0.909315 103.475 2.78905 105.64L98.8734 161.456C100.431 162.356 102.328 162.356 103.886 161.456L116.708 154.132C117.609 153.597 117.609 152.308 116.708 151.772L156.967 122.131L85.2459 52.459L2.76471 95.9562H2.74038Z" fill="#20A76A"/>
<path d="M175.504 120.026L168.132 124.357L162.365 121.048L150.346 127.958L150.321 134.893L118.009 154.017V71.8988L175.504 49.3436V120.026Z" fill="#F8FAFD"/>
<path d="M130.564 97.5441L145.163 89.1255V76.5705L130.564 84.9891V97.5441Z" fill="#D1D9E5"/>
<path d="M151.951 85.1841L166.55 76.7654V64.6484L151.951 73.0671V85.1841Z" fill="#D1D9E5"/>
<g style="mix-blend-mode:multiply">
<path d="M175.504 65.1833L146.307 68.3951L118.034 99.9041L118.009 71.8988L175.504 49.3436V65.1833Z" fill="#EFF4FA"/>
</g>
<path d="M118.01 154.017L99.7614 143.214L31.5576 103.689V48.3607L118.034 94.2354L118.01 154.017Z" fill="#C0CDD9"/>
<g style="mix-blend-mode:multiply">
<path d="M111.878 107.204L25.5259 56.3515L34.5528 47.7139L118.131 93.2378L118.034 99.9045L111.878 107.204Z" fill="#EFF4FA"/>
</g>
<path d="M148.958 58.5904L65.502 8.63818L104.335 4.93982L187.815 54.9163L148.958 58.5904Z" fill="#055082"/>
<path d="M110.856 102.29L27.5209 52.5321L26.7666 50.8046L110.247 100.781L110.856 102.29Z" fill="#3A3A3A"/>
<path d="M110.247 100.781L26.7666 50.8041L65.5021 8.63794L148.958 58.5901L110.247 100.781Z" fill="#006FBA"/>
<path d="M148.959 58.5907L187.816 54.9166L187.451 56.4495L149.64 60.2695L110.856 102.29L110.248 100.781L148.959 58.5907Z" fill="#3A3A3A"/>
<path d="M111.683 5.69353L102.048 11.4114L92.3882 5.69353L102.048 0L111.683 5.69353Z" fill="#F8FAFD"/>
<path d="M102.048 2.40857L107.62 5.6933L102.048 9.00236V2.40857Z" fill="#C0CDD9"/>
<path d="M111.683 18.5649L102.048 21.3144V11.4115L111.683 5.69366V18.5649Z" fill="#E6EDF7"/>
<path d="M102.048 21.3144L92.3882 15.5965V5.69366L102.048 11.4115V21.3144Z" fill="#C0CDD9"/>
<path d="M96.4512 5.6933L102.047 2.40857V9.00236L96.4512 5.6933Z" fill="#E6EDF7"/>
<path d="M162.365 121.048L168.132 124.358V94.4543L162.365 97.6904V121.048Z" fill="#C0CDD9"/>
<path d="M150.346 104.601V127.959L162.365 121.049V97.6907L150.346 104.601Z" fill="#006FBA"/>
<path d="M126.671 135.331L141.27 126.912V108.469L126.671 116.912V135.331Z" fill="#D1D9E5"/>
<path d="M122.793 76.0493L123.088 76.6798L109.754 91.4634L109.458 90.8328L122.793 76.0493Z" fill="#E6EDF7"/>
<path d="M109.458 90.8333L109.753 91.4638L99.2895 85.2392L98.981 84.6086L109.458 90.8333Z" fill="#C0CDD9"/>
<path d="M122.793 76.0498L109.458 90.8333L98.981 84.6087L112.329 69.8251L122.793 76.0498Z" fill="#F8FAFD"/>
<path d="M99.7725 84.4874L112.423 70.4685L122.001 76.17L109.351 90.1888L99.7725 84.4874Z" fill="url(#paint0_linear_1684_8858)"/>
<path d="M117.762 77.5256L119.869 78.8L120.016 78.6391L117.897 77.3646L117.856 76.8548L119.761 74.7352L119.56 74.6145L117.668 76.7341L117.038 76.8683L115.482 75.9292L115.442 75.4194L117.347 73.2998L117.145 73.1791L115.254 75.2987L114.623 75.4328L113.067 74.4938L113.027 73.984L114.932 71.8644L114.731 71.7437L112.839 73.8633L112.209 73.9974L110.035 72.6827L109.888 72.8437L112.061 74.1584L112.101 74.6816L110.693 76.2512L110.062 76.3853L107.889 75.0706L107.741 75.2316L109.915 76.5463L109.955 77.0695L108.546 78.6391L107.916 78.7732L105.742 77.4585L105.595 77.6195L107.768 78.9342L107.808 79.4574L106.4 81.027L105.769 81.1611L103.596 79.8464L103.448 80.0074L105.622 81.3221L105.662 81.8453L104.455 83.2002L103.851 83.321L101.664 82.0063L101.517 82.1672L103.69 83.4819L103.73 84.0185L101.973 85.9772L102.174 86.0979L103.931 84.1393L104.575 84.0051L106.105 84.9308L106.145 85.4674L104.387 87.426L104.589 87.5467L106.346 85.5881L106.99 85.454L108.519 86.3796L108.56 86.9162L106.802 88.8748L107.003 88.9956L108.761 87.037L109.405 86.9028L111.511 88.1638L111.658 88.0028L109.539 86.7284L109.512 86.232L110.733 84.8771L111.35 84.743L113.456 86.0174L113.604 85.8564L111.484 84.582L111.444 84.0722L112.866 82.4892L113.483 82.3551L115.589 83.6295L115.737 83.4685L113.617 82.1941L113.577 81.6843L114.999 80.1013L115.629 79.9672L117.736 81.2416L117.883 81.0806L115.764 79.8062L115.723 79.2964L117.145 77.7134L117.776 77.5793L117.762 77.5256ZM112.383 78.4915L110.974 80.0611L110.344 80.1952L108.788 79.2562L108.747 78.7464L110.169 77.1634L110.8 77.0292L112.343 77.9549L112.383 78.4781V78.4915ZM114.489 75.567L114.529 76.0902L113.121 77.6597L112.49 77.7939L110.934 76.8548L110.894 76.3451L112.316 74.7621L112.946 74.6279L114.489 75.5536V75.567ZM110.196 80.3562L110.236 80.8794L108.828 82.449L108.197 82.5831L106.641 81.6441L106.601 81.1343L108.023 79.5513L108.653 79.4171L110.196 80.3428V80.3562ZM104.696 83.8173L104.669 83.321L105.89 81.966L106.52 81.8319L108.063 82.7575L108.103 83.2807L106.896 84.6356L106.292 84.7564L104.723 83.8173H104.696ZM107.097 85.2662L107.07 84.7698L108.291 83.4149L108.922 83.2807L110.465 84.2064L110.505 84.7295L109.297 86.0845L108.694 86.2052L107.124 85.2662H107.097ZM109.043 83.1063L109.002 82.5965L110.424 81.0135L111.055 80.8794L112.598 81.805L112.638 82.3282L111.229 83.8978L110.599 84.032L109.043 83.0929V83.1063ZM111.189 80.705L111.149 80.1952L112.571 78.6122L113.201 78.4781L114.744 79.4037L114.784 79.9269L113.376 81.4965L112.745 81.6306L111.189 80.6916V80.705ZM113.335 78.3037L113.295 77.7939L114.717 76.2109L115.348 76.0768L116.89 77.0024L116.931 77.5256L115.522 79.0952L114.892 79.2293L113.335 78.2903V78.3037Z" fill="#F8FAFD"/>
<path d="M137.014 59.8661L137.31 60.4966L123.975 75.2801L123.68 74.6496L137.014 59.8661Z" fill="#E6EDF7"/>
<path d="M123.679 74.6501L123.975 75.2806L113.511 69.0559L113.202 68.4254L123.679 74.6501Z" fill="#C0CDD9"/>
<path d="M137.014 59.8664L123.679 74.6499L113.202 68.4253L126.55 53.6417L137.014 59.8664Z" fill="#F8FAFD"/>
<path d="M113.994 68.3041L126.644 54.2853L136.223 59.9867L123.572 74.0056L113.994 68.3041Z" fill="url(#paint1_linear_1684_8858)"/>
<path d="M131.984 61.3416L134.09 62.616L134.237 62.455L132.118 61.1806L132.077 60.6708L133.982 58.5512L133.781 58.4305L131.89 60.5501L131.259 60.6842L129.703 59.7452L129.663 59.2354L131.568 57.1158L131.366 56.9951L129.475 59.1147L128.844 59.2488L127.288 58.3097L127.248 57.8L129.153 55.6804L128.952 55.5596L127.06 57.6792L126.43 57.8134L124.256 56.4987L124.109 56.6597L126.282 57.9744L126.322 58.4976L124.914 60.0671L124.283 60.2013L122.11 58.8866L121.962 59.0476L124.136 60.3623L124.176 60.8855L122.767 62.455L122.137 62.5892L119.964 61.2745L119.816 61.4355L121.989 62.7502L122.03 63.2734L120.621 64.8429L119.99 64.9771L117.817 63.6624L117.67 63.8234L119.843 65.1381L119.883 65.6613L118.676 67.0162L118.072 67.1369L115.885 65.8222L115.738 65.9832L117.911 67.2979L117.951 67.8345L116.194 69.7931L116.395 69.9139L118.153 67.9553L118.796 67.8211L120.326 68.7468L120.366 69.2834L118.609 71.242L118.81 71.3627L120.567 69.4041L121.211 69.2699L122.741 70.1956L122.781 70.7322L121.023 72.6908L121.225 72.8116L122.982 70.8529L123.626 70.7188L125.732 71.9798L125.88 71.8188L123.76 70.5444L123.733 70.048L124.954 68.6931L125.571 68.5589L127.677 69.8334L127.825 69.6724L125.705 68.398L125.665 67.8882L127.087 66.3052L127.704 66.171L129.81 67.4455L129.958 67.2845L127.838 66.0101L127.798 65.5003L129.22 63.9173L129.851 63.7831L131.957 65.0576L132.104 64.8966L129.985 63.6222L129.944 63.1124L131.366 61.5294L131.997 61.3952L131.984 61.3416ZM126.604 62.3075L125.196 63.877L124.565 64.0112L123.009 63.0721L122.969 62.5624L124.391 60.9794L125.021 60.8452L126.564 61.7709L126.604 62.2941V62.3075ZM128.71 59.383L128.751 59.9062L127.342 61.4757L126.711 61.6099L125.155 60.6708L125.115 60.161L126.537 58.578L127.168 58.4439L128.71 59.3695V59.383ZM124.417 64.1722L124.458 64.6954L123.049 66.2649L122.419 66.3991L120.862 65.46L120.822 64.9503L122.244 63.3673L122.875 63.2331L124.417 64.1588V64.1722ZM118.917 67.6333L118.89 67.1369L120.111 65.782L120.742 65.6478L122.284 66.5735L122.325 67.0967L121.117 68.4516L120.514 68.5724L118.944 67.6333H118.917ZM121.319 69.0821L121.292 68.5858L122.512 67.2308L123.143 67.0967L124.686 68.0223L124.726 68.5455L123.519 69.9005L122.915 70.0212L121.345 69.0821H121.319ZM123.264 66.9223L123.223 66.4125L124.645 64.8295L125.276 64.6954L126.819 65.621L126.859 66.1442L125.45 67.7138L124.82 67.8479L123.264 66.9089V66.9223ZM125.41 64.521L125.37 64.0112L126.792 62.4282L127.422 62.2941L128.965 63.2197L129.005 63.7429L127.597 65.3125L126.966 65.4466L125.41 64.5076V64.521ZM127.557 62.1197L127.516 61.6099L128.938 60.0269L129.569 59.8927L131.112 60.8184L131.152 61.3416L129.743 62.9111L129.113 63.0453L127.557 62.1062V62.1197Z" fill="#F8FAFD"/>
<path d="M110.533 68.2037L110.829 68.8343L97.4939 83.6178L97.1987 82.9873L110.533 68.2037Z" fill="#E6EDF7"/>
<path d="M97.1984 82.9877L97.4936 83.6182L87.0297 77.3936L86.7212 76.7631L97.1984 82.9877Z" fill="#C0CDD9"/>
<path d="M110.533 68.204L97.1984 82.9875L86.7212 76.7629L100.069 61.9794L110.533 68.204Z" fill="#F8FAFD"/>
<path d="M87.5127 76.6418L100.163 62.6229L109.742 68.3244L97.0911 82.3432L87.5127 76.6418Z" fill="url(#paint2_linear_1684_8858)"/>
<path d="M105.503 69.68L107.609 70.9545L107.756 70.7935L105.637 69.519L105.597 69.0093L107.501 66.8897L107.3 66.7689L105.409 68.8885L104.778 69.0227L103.222 68.0836L103.182 67.5738L105.087 65.4542L104.886 65.3335L102.994 67.4531L102.363 67.5872L100.807 66.6482L100.767 66.1384L102.672 64.0188L102.471 63.8981L100.579 66.0177L99.9487 66.1518L97.7755 64.8371L97.6279 64.9981L99.8012 66.3128L99.8414 66.836L98.4328 68.4056L97.8023 68.5397L95.629 67.225L95.4815 67.386L97.6547 68.7007L97.695 69.2239L96.2864 70.7935L95.6559 70.9276L93.4826 69.6129L93.3351 69.7739L95.5083 71.0886L95.5486 71.6118L94.14 73.1814L93.5094 73.3155L91.3362 72.0008L91.1886 72.1618L93.3619 73.4765L93.4021 73.9997L92.1948 75.3546L91.5911 75.4754L89.4044 74.1607L89.2568 74.3217L91.4301 75.6364L91.4703 76.173L89.7129 78.1316L89.9142 78.2523L91.6716 76.2937L92.3155 76.1595L93.8448 77.0852L93.8851 77.6218L92.1277 79.5804L92.3289 79.7012L94.0863 77.7425L94.7302 77.6084L96.2596 78.534L96.2998 79.0706L94.5424 81.0293L94.7436 81.15L96.501 79.1914L97.145 79.0572L99.2511 80.3183L99.3987 80.1573L97.2791 78.8828L97.2523 78.3865L98.4731 77.0315L99.0902 76.8974L101.196 78.1718L101.344 78.0108L99.2243 76.7364L99.1841 76.2266L100.606 74.6436L101.223 74.5095L103.329 75.7839L103.477 75.6229L101.357 74.3485L101.317 73.8387L102.739 72.2557L103.37 72.1216L105.476 73.396L105.623 73.235L103.504 71.9606L103.464 71.4508L104.886 69.8678L105.516 69.7337L105.503 69.68ZM100.123 70.6459L98.7145 72.2155L98.084 72.3496L96.5279 71.4106L96.4876 70.9008L97.9096 69.3178L98.5401 69.1837L100.083 70.1093L100.123 70.6325V70.6459ZM102.229 67.7214L102.27 68.2446L100.861 69.8142L100.23 69.9483L98.6743 69.0093L98.634 68.4995L100.056 66.9165L100.687 66.7823L102.229 67.708V67.7214ZM97.9365 72.5106L97.9767 73.0338L96.5681 74.6034L95.9376 74.7375L94.3814 73.7985L94.3412 73.2887L95.7632 71.7057L96.3937 71.5716L97.9365 72.4972V72.5106ZM92.4362 75.9717L92.4094 75.4754L93.6302 74.1204L94.2607 73.9863L95.8034 74.9119L95.8437 75.4351L94.6363 76.7901L94.0326 76.9108L92.4631 75.9717H92.4362ZM94.8375 77.4206L94.8107 76.9242L96.0315 75.5693L96.662 75.4351L98.2048 76.3608L98.245 76.884L97.0376 78.2389L96.434 78.3596L94.8644 77.4206H94.8375ZM96.7828 75.2607L96.7425 74.751L98.1645 73.168L98.795 73.0338L100.338 73.9595L100.378 74.4826L98.9694 76.0522L98.3389 76.1864L96.7828 75.2473V75.2607ZM98.9292 72.8594L98.8889 72.3496L100.311 70.7666L100.941 70.6325L102.484 71.5581L102.524 72.0813L101.116 73.6509L100.485 73.7851L98.9292 72.846V72.8594ZM101.076 70.4581L101.035 69.9483L102.457 68.3653L103.088 68.2312L104.631 69.1568L104.671 69.68L103.262 71.2496L102.632 71.3837L101.076 70.4447V70.4581Z" fill="#F8FAFD"/>
<path d="M124.755 52.0206L125.05 52.6511L111.715 67.4346L111.42 66.8041L124.755 52.0206Z" fill="#E6EDF7"/>
<path d="M111.42 66.8045L111.715 67.4351L101.251 61.2104L100.942 60.5799L111.42 66.8045Z" fill="#C0CDD9"/>
<path d="M124.754 52.0207L111.42 66.8043L100.942 60.5796L114.29 45.7961L124.754 52.0207Z" fill="#F8FAFD"/>
<path d="M101.734 60.4586L114.385 46.4397L123.963 52.1411L111.313 66.16L101.734 60.4586Z" fill="url(#paint3_linear_1684_8858)"/>
<path d="M119.724 53.496L121.83 54.7704L121.978 54.6095L119.858 53.335L119.818 52.8252L121.723 50.7056L121.521 50.5849L119.63 52.7045L118.999 52.8386L117.443 51.8996L117.403 51.3898L119.308 49.2702L119.107 49.1495L117.215 51.2691L116.585 51.4032L115.028 50.4642L114.988 49.9544L116.893 47.8348L116.692 47.7141L114.8 49.8337L114.17 49.9678L111.997 48.6531L111.849 48.8141L114.022 50.1288L114.063 50.652L112.654 52.2216L112.024 52.3557L109.85 51.041L109.703 51.202L111.876 52.5167L111.916 53.0399L110.508 54.6095L109.877 54.7436L107.704 53.4289L107.556 53.5899L109.729 54.9046L109.77 55.4278L108.361 56.9974L107.731 57.1315L105.557 55.8168L105.41 55.9778L107.583 57.2925L107.623 57.8157L106.416 59.1706L105.812 59.2914L103.626 57.9767L103.478 58.1376L105.651 59.4523L105.692 59.9889L103.934 61.9476L104.135 62.0683L105.893 60.1097L106.537 59.9755L108.066 60.9012L108.106 61.4378L106.349 63.3964L106.55 63.5171L108.307 61.5585L108.951 61.4244L110.481 62.35L110.521 62.8866L108.764 64.8452L108.965 64.966L110.722 63.0074L111.366 62.8732L113.472 64.1342L113.62 63.9732L111.5 62.6988L111.473 62.2024L112.694 60.8475L113.311 60.7134L115.418 61.9878L115.565 61.8268L113.446 60.5524L113.405 60.0426L114.827 58.4596L115.444 58.3255L117.551 59.5999L117.698 59.4389L115.579 58.1645L115.538 57.6547L116.96 56.0717L117.591 55.9376L119.697 57.212L119.845 57.051L117.725 55.7766L117.685 55.2668L119.107 53.6838L119.737 53.5497L119.724 53.496ZM114.344 54.4619L112.936 56.0315L112.305 56.1656L110.749 55.2266L110.709 54.7168L112.131 53.1338L112.761 52.9996L114.304 53.9253L114.344 54.4485V54.4619ZM116.451 51.5374L116.491 52.0606L115.082 53.6301L114.452 53.7643L112.895 52.8252L112.855 52.3155L114.277 50.7325L114.908 50.5983L116.451 51.524V51.5374ZM112.158 56.3266L112.198 56.8498L110.789 58.4194L110.159 58.5535L108.603 57.6145L108.562 57.1047L109.984 55.5217L110.615 55.3875L112.158 56.3132V56.3266ZM106.657 59.7877L106.631 59.2914L107.851 57.9364L108.482 57.8023L110.025 58.7279L110.065 59.2511L108.858 60.606L108.254 60.7268L106.684 59.7877H106.657ZM109.059 61.2366L109.032 60.7402L110.253 59.3853L110.883 59.2511L112.426 60.1768L112.466 60.6999L111.259 62.0549L110.655 62.1756L109.086 61.2366H109.059ZM111.004 59.0767L110.964 58.5669L112.386 56.9839L113.016 56.8498L114.559 57.7754L114.599 58.2986L113.191 59.8682L112.56 60.0024L111.004 59.0633V59.0767ZM113.15 56.6754L113.11 56.1656L114.532 54.5826L115.163 54.4485L116.705 55.3741L116.746 55.8973L115.337 57.4669L114.707 57.601L113.15 56.662V56.6754ZM115.297 54.2741L115.257 53.7643L116.679 52.1813L117.309 52.0472L118.852 52.9728L118.892 53.496L117.483 55.0656L116.853 55.1997L115.297 54.2607V54.2741Z" fill="#F8FAFD"/>
<path d="M98.2741 60.8483L98.5693 61.4788L85.2346 76.2624L84.9395 75.6319L98.2741 60.8483Z" fill="#E6EDF7"/>
<path d="M84.9392 75.6323L85.2343 76.2628L74.7705 70.0382L74.4619 69.4077L84.9392 75.6323Z" fill="#C0CDD9"/>
<path d="M98.2739 60.8486L84.9392 75.6321L74.4619 69.4075L87.81 54.624L98.2739 60.8486Z" fill="#F8FAFD"/>
<path d="M75.2534 69.2864L87.9039 55.2675L97.4824 60.969L84.8319 74.9878L75.2534 69.2864Z" fill="url(#paint4_linear_1684_8858)"/>
<path d="M93.2433 62.3238L95.3495 63.5983L95.4971 63.4373L93.3775 62.1628L93.3372 61.6531L95.2422 59.5335L95.041 59.4127L93.1494 61.5323L92.5189 61.6665L90.9628 60.7274L90.9225 60.2176L92.8275 58.098L92.6262 57.9773L90.7347 60.0969L90.1042 60.231L88.548 59.292L88.5078 58.7822L90.4127 56.6626L90.2115 56.5419L88.32 58.6615L87.6895 58.7956L85.5162 57.4809L85.3686 57.6419L87.5419 58.9566L87.5821 59.4798L86.1735 61.0494L85.543 61.1835L83.3698 59.8688L83.2222 60.0298L85.3955 61.3445L85.4357 61.8677L84.0271 63.4373L83.3966 63.5714L81.2233 62.2567L81.0758 62.4177L83.249 63.7324L83.2893 64.2556L81.8807 65.8252L81.2502 65.9593L79.0769 64.6446L78.9293 64.8056L81.1026 66.1203L81.1428 66.6435L79.9355 67.9984L79.3318 68.1192L77.1451 66.8045L76.9976 66.9655L79.1708 68.2802L79.2111 68.8168L77.4537 70.7754L77.6549 70.8961L79.4123 68.9375L80.0562 68.8033L81.5855 69.729L81.6258 70.2656L79.8684 72.2242L80.0696 72.3449L81.827 70.3863L82.471 70.2522L84.0003 71.1778L84.0405 71.7144L82.2831 73.6731L82.4844 73.7938L84.2418 71.8352L84.8857 71.701L86.9919 72.9621L87.1394 72.8011L85.0198 71.5266L84.993 71.0303L86.2138 69.6753L86.8309 69.5412L88.9371 70.8156L89.0846 70.6546L86.965 69.3802L86.9248 68.8704L88.3468 67.2874L88.9639 67.1533L91.0701 68.4277L91.2176 68.2667L89.098 66.9923L89.0578 66.4825L90.4798 64.8995L91.1103 64.7654L93.2165 66.0398L93.3641 65.8788L91.2445 64.6044L91.2042 64.0946L92.6262 62.5116L93.2568 62.3775L93.2433 62.3238ZM87.8639 63.2897L86.4553 64.8593L85.8248 64.9934L84.2686 64.0544L84.2283 63.5446L85.6503 61.9616L86.2809 61.8275L87.8236 62.7531L87.8639 63.2763V63.2897ZM89.97 60.3652L90.0103 60.8884L88.6017 62.458L87.9712 62.5921L86.415 61.6531L86.3748 61.1433L87.7968 59.5603L88.4273 59.4261L89.97 60.3518V60.3652ZM85.6772 65.1544L85.7174 65.6776L84.3088 67.2472L83.6783 67.3813L82.1222 66.4423L82.0819 65.9325L83.5039 64.3495L84.1344 64.2154L85.6772 65.141V65.1544ZM80.177 68.6155L80.1501 68.1192L81.3709 66.7642L82.0014 66.6301L83.5442 67.5557L83.5844 68.0789L82.377 69.4339L81.7734 69.5546L80.2038 68.6155H80.177ZM82.5783 70.0644L82.5514 69.568L83.7722 68.2131L84.4027 68.0789L85.9455 69.0046L85.9857 69.5278L84.7784 70.8827L84.1747 71.0034L82.6051 70.0644H82.5783ZM84.5235 67.9045L84.4832 67.3948L85.9052 65.8118L86.5358 65.6776L88.0785 66.6033L88.1187 67.1264L86.7101 68.696L86.0796 68.8302L84.5235 67.8911V67.9045ZM86.6699 65.5032L86.6297 64.9934L88.0517 63.4104L88.6822 63.2763L90.2249 64.2019L90.2652 64.7251L88.8566 66.2947L88.2261 66.4289L86.6699 65.4898V65.5032ZM88.8163 63.1019L88.7761 62.5921L90.1981 61.0091L90.8286 60.875L92.3714 61.8006L92.4116 62.3238L91.003 63.8934L90.3725 64.0275L88.8163 63.0885V63.1019Z" fill="#F8FAFD"/>
<path d="M112.495 44.6652L112.79 45.2957L99.4553 60.0792L99.1602 59.4487L112.495 44.6652Z" fill="#E6EDF7"/>
<path d="M99.1599 59.4491L99.455 60.0796L88.9912 53.855L88.6826 53.2245L99.1599 59.4491Z" fill="#C0CDD9"/>
<path d="M112.495 44.6653L99.1599 59.4488L88.6826 53.2242L102.031 38.4407L112.495 44.6653Z" fill="#F8FAFD"/>
<path d="M89.4741 53.1032L102.125 39.0844L111.703 44.7858L99.0526 58.8047L89.4741 53.1032Z" fill="url(#paint5_linear_1684_8858)"/>
<path d="M107.464 46.1414L109.57 47.4159L109.718 47.2549L107.598 45.9805L107.558 45.4707L109.463 43.3511L109.262 43.2303L107.37 45.3499L106.74 45.4841L105.183 44.545L105.143 44.0353L107.048 41.9157L106.847 41.7949L104.955 43.9145L104.325 44.0487L102.769 43.1096L102.728 42.5998L104.633 40.4802L104.432 40.3595L102.541 42.4791L101.91 42.6132L99.7369 41.2986L99.5893 41.4595L101.763 42.7742L101.803 43.2974L100.394 44.867L99.7637 45.0011L97.5905 43.6865L97.4429 43.8474L99.6162 45.1621L99.6564 45.6853L98.2478 47.2549L97.6173 47.3891L95.444 46.0744L95.2965 46.2353L97.4697 47.55L97.51 48.0732L96.1014 49.6428L95.4709 49.777L93.2976 48.4623L93.1501 48.6232L95.3233 49.9379L95.3635 50.4611L94.1562 51.8161L93.5525 51.9368L91.3658 50.6221L91.2183 50.7831L93.3915 52.0978L93.4318 52.6344L91.6744 54.593L91.8756 54.7137L93.633 52.7551L94.2769 52.621L95.8063 53.5466L95.8465 54.0832L94.0891 56.0418L94.2903 56.1626L96.0477 54.204L96.6917 54.0698L98.221 54.9955L98.2612 55.5321L96.5038 57.4907L96.7051 57.6114L98.4625 55.6528L99.1064 55.5186L101.213 56.7797L101.36 56.6187L99.2405 55.3443L99.2137 54.8479L100.434 53.493L101.052 53.3588L103.158 54.6332L103.305 54.4723L101.186 53.1978L101.145 52.6881L102.568 51.1051L103.185 50.9709L105.291 52.2453L105.438 52.0844L103.319 50.8099L103.279 50.3001L104.701 48.7172L105.331 48.583L107.437 49.8574L107.585 49.6965L105.465 48.422L105.425 47.9122L106.847 46.3293L107.477 46.1951L107.464 46.1414ZM102.085 47.1073L100.676 48.6769L100.045 48.8111L98.4893 47.872L98.449 47.3622L99.871 45.7792L100.502 45.6451L102.044 46.5707L102.085 47.0939V47.1073ZM104.191 44.1828L104.231 44.706L102.822 46.2756L102.192 46.4097L100.636 45.4707L100.595 44.9609L102.017 43.3779L102.648 43.2438L104.191 44.1694V44.1828ZM99.8979 48.972L99.9381 49.4952L98.5295 51.0648L97.899 51.199L96.3429 50.2599L96.3026 49.7501L97.7246 48.1671L98.3551 48.033L99.8979 48.9586V48.972ZM94.3977 52.4332L94.3708 51.9368L95.5916 50.5819L96.2221 50.4477L97.7649 51.3734L97.8051 51.8966L96.5978 53.2515L95.9941 53.3722L94.4245 52.4332H94.3977ZM96.799 53.882L96.7721 53.3856L97.9929 52.0307L98.6234 51.8966L100.166 52.8222L100.206 53.3454L98.9991 54.7003L98.3954 54.8211L96.8258 53.882H96.799ZM98.7442 51.7222L98.7039 51.2124L100.126 49.6294L100.756 49.4952L102.299 50.4209L102.339 50.9441L100.931 52.5137L100.3 52.6478L98.7442 51.7087V51.7222ZM100.891 49.3208L100.85 48.8111L102.272 47.2281L102.903 47.0939L104.446 48.0196L104.486 48.5428L103.077 50.1123L102.447 50.2465L100.891 49.3074V49.3208ZM103.037 46.9195L102.997 46.4097L104.419 44.8268L105.049 44.6926L106.592 45.6182L106.632 46.1414L105.224 47.711L104.593 47.8452L103.037 46.9061V46.9195Z" fill="#F8FAFD"/>
<defs>
<linearGradient id="paint0_linear_1684_8858" x1="99.0832" y1="80.212" x2="121.342" y2="80.3752" gradientUnits="userSpaceOnUse">
<stop offset="0.01" stop-color="#1E1E1E"/>
<stop offset="0.6" stop-color="#1E1E1E"/>
<stop offset="1" stop-color="#656A70"/>
</linearGradient>
<linearGradient id="paint1_linear_1684_8858" x1="113.304" y1="64.0288" x2="135.563" y2="64.192" gradientUnits="userSpaceOnUse">
<stop offset="0.01" stop-color="#1E1E1E"/>
<stop offset="0.6" stop-color="#1E1E1E"/>
<stop offset="1" stop-color="#656A70"/>
</linearGradient>
<linearGradient id="paint2_linear_1684_8858" x1="86.8234" y1="72.3665" x2="109.082" y2="72.5296" gradientUnits="userSpaceOnUse">
<stop offset="0.01" stop-color="#1E1E1E"/>
<stop offset="0.6" stop-color="#1E1E1E"/>
<stop offset="1" stop-color="#656A70"/>
</linearGradient>
<linearGradient id="paint3_linear_1684_8858" x1="101.045" y1="56.1832" x2="123.303" y2="56.3464" gradientUnits="userSpaceOnUse">
<stop offset="0.01" stop-color="#1E1E1E"/>
<stop offset="0.6" stop-color="#1E1E1E"/>
<stop offset="1" stop-color="#656A70"/>
</linearGradient>
<linearGradient id="paint4_linear_1684_8858" x1="74.5641" y1="65.011" x2="96.8225" y2="65.1742" gradientUnits="userSpaceOnUse">
<stop offset="0.01" stop-color="#1E1E1E"/>
<stop offset="0.6" stop-color="#1E1E1E"/>
<stop offset="1" stop-color="#656A70"/>
</linearGradient>
<linearGradient id="paint5_linear_1684_8858" x1="88.7848" y1="48.8279" x2="111.043" y2="48.991" gradientUnits="userSpaceOnUse">
<stop offset="0.01" stop-color="#1E1E1E"/>
<stop offset="0.6" stop-color="#1E1E1E"/>
<stop offset="1" stop-color="#656A70"/>
</linearGradient>
</defs>
</svg>
