<?xml version="1.0" encoding="UTF-8"?>
<svg width="64px" height="64px" viewBox="0 0 64 64" version="1.1" xmlns="http://www.w3.org/2000/svg" xmlns:xlink="http://www.w3.org/1999/xlink">
    <title>Drill Icon</title>
    <g id="Drill-Icon" stroke="none" stroke-width="1" fill="none" fill-rule="evenodd">
        <path d="M42,16 L54,16 C55.1045695,16 56,16.8954305 56,18 L56,30 C56,31.1045695 55.1045695,32 54,32 L42,32 L42,16 Z" id="Handle" fill="#5a5a5a"></path>
        <path d="M16,22 L42,22 L42,26 L16,26 C14.8954305,26 14,25.1045695 14,24 C14,22.8954305 14.8954305,22 16,22 Z" id="Body" fill="#ff6b00"></path>
        <rect id="Trigger" fill="#5a5a5a" x="36" y="26" width="6" height="10" rx="2"></rect>
        <path d="M8,23 L16,23 L16,25 L8,25 C7.44771525,25 7,24.5522847 7,24 C7,23.4477153 7.44771525,23 8,23 Z" id="Drill-Bit" fill="#8a8a8a"></path>
        <path d="M48,20 C48,18.8954305 48.8954305,18 50,18 C51.1045695,18 52,18.8954305 52,20 C52,21.1045695 51.1045695,22 50,22 C48.8954305,22 48,21.1045695 48,20 Z" id="Button" fill="#ff6b00"></path>
        <path d="M48,28 C48,26.8954305 48.8954305,26 50,26 C51.1045695,26 52,26.8954305 52,28 C52,29.1045695 51.1045695,30 50,30 C48.8954305,30 48,29.1045695 48,28 Z" id="Button-Copy" fill="#ff6b00"></path>
        <path d="M20,38 L24,38 L24,46 L20,46 L20,38 Z" id="Wall" fill="#8a8a8a" transform="translate(22.000000, 42.000000) rotate(90.000000) translate(-22.000000, -42.000000) "></path>
        <circle id="Hole" fill="#5a5a5a" cx="22" cy="42" r="4"></circle>
    </g>
</svg>
