<?xml version="1.0" encoding="UTF-8"?>
<svg width="64px" height="64px" viewBox="0 0 64 64" version="1.1" xmlns="http://www.w3.org/2000/svg" xmlns:xlink="http://www.w3.org/1999/xlink">
    <title>Fiber Icon</title>
    <g id="Fiber-Icon" stroke="none" stroke-width="1" fill="none" fill-rule="evenodd">
        <path d="M32,8 C18.745166,8 8,18.745166 8,32 C8,45.254834 18.745166,56 32,56 C45.254834,56 56,45.254834 56,32 C56,18.745166 45.254834,8 32,8 Z M32,12 C43.045695,12 52,20.954305 52,32 C52,43.045695 43.045695,52 32,52 C20.954305,52 12,43.045695 12,32 C12,20.954305 20.954305,12 32,12 Z" id="Circle" fill="#5a5a5a" fill-rule="nonzero"></path>
        <path d="M32,16 C23.163444,16 16,23.163444 16,32 C16,40.836556 23.163444,48 32,48 C40.836556,48 48,40.836556 48,32 C48,23.163444 40.836556,16 32,16 Z M32,20 C38.627417,20 44,25.372583 44,32 C44,38.627417 38.627417,44 32,44 C25.372583,44 20,38.627417 20,32 C20,25.372583 25.372583,20 32,20 Z" id="Inner-Circle" fill="#ff6b00" fill-rule="nonzero"></path>
        <rect id="Line-1" fill="#5a5a5a" x="30" y="8" width="4" height="16" rx="2"></rect>
        <rect id="Line-2" fill="#5a5a5a" x="30" y="40" width="4" height="16" rx="2"></rect>
        <rect id="Line-3" fill="#5a5a5a" transform="translate(16.000000, 32.000000) rotate(90.000000) translate(-16.000000, -32.000000) " x="14" y="24" width="4" height="16" rx="2"></rect>
        <rect id="Line-4" fill="#5a5a5a" transform="translate(48.000000, 32.000000) rotate(90.000000) translate(-48.000000, -32.000000) " x="46" y="24" width="4" height="16" rx="2"></rect>
        <circle id="Center" fill="#ff6b00" cx="32" cy="32" r="6"></circle>
    </g>
</svg>
